<svg version="1.0" xmlns="http://www.w3.org/2000/svg"  width="182.000000pt" height="138.000000pt" viewBox="0 0 182.000000 138.000000"  preserveAspectRatio="xMidYMid meet">  <g transform="translate(0.000000,138.000000) scale(0.100000,-0.100000)" fill="#000000" stroke="none"> <path d="M790 1252 c0 -2 9 -20 21 -38 23 -37 44 -46 36 -14 -3 11 0 20 6 20 12 0 49 -55 83 -124 10 -22 25 -48 33 -57 8 -10 29 -46 48 -81 128 -237 132 -241 216 -246 52 -3 66 0 89 18 27 21 27 22 12 58 -8 20 -32 64 -53 97 -21 33 -55 91 -76 129 -48 88 -67 106 -109 106 -19 0 -38 5 -41 11 -5 7 12 9 50 7 52 -3 59 -6 74 -33 9 -16 32 -57 51 -90 19 -33 39 -69 45 -80 26 -47 40 -70 45 -75 3 -3 16 -25 29 -50 13 -25 30 -52 37 -61 8 -8 14 -19 14 -24 0 -5 12 -22 27 -37 l27 -28 -286 0 -286 0 -96 -167 c-53 -91 -94 -168 -92 -170 2 -2 36 54 76 124 98 172 107 183 136 183 29 0 31 -14 5 -32 -27 -19 -81 -108 -81 -134 0 -12 7 -27 15 -34 23 -19 18 -30 -14 -30 -35 0 -84 -51 -113 -118 -18 -40 -18 -45 -4 -61 24 -27 20 -31 -34 -31 -27 0 -50 3 -50 7 0 3 14 31 31 62 38 68 26 59 -16 -11 -17 -29 -35 -53 -40 -55 -9 -2 -85 126 -85 143 0 3 14 -6 31 -20 46 -39 62 -24 151 134 14 25 35 62 47 83 11 20 30 53 41 72 28 51 25 74 -20 143 -43 67 -64 76 -95 42 -26 -29 -28 -20 -5 28 25 51 25 63 0 113 -25 47 -48 77 -74 91 -14 8 -24 4 -47 -18 -16 -15 -29 -25 -29 -21 0 14 54 107 62 107 4 0 11 1 15 1 9 2 25 -25 79 -126 20 -38 40 -72 44 -75 6 -4 39 -60 99 -171 11 -19 27 -42 37 -50 16 -13 17 -12 10 6 -4 10 -60 112 -125 225 -65 113 -123 214 -129 225 -10 20 -9 21 83 17 99 -5 150 2 140 18 -4 6 -61 10 -130 10 l-125 0 -20 -40 c-11 -22 -76 -136 -145 -254 l-124 -215 42 -75 c23 -42 45 -76 49 -76 4 0 16 17 27 38 19 38 19 39 0 68 -10 16 -19 34 -19 41 0 7 44 89 97 182 108 186 96 179 147 85 l27 -50 -92 -160 c-50 -87 -116 -201 -147 -253 l-55 -93 23 -47 22 -46 21 42 c23 47 34 53 45 25 4 -10 30 -57 57 -105 l50 -87 295 0 295 0 47 80 47 80 -49 0 c-48 0 -50 -1 -70 -40 l-20 -40 -200 0 c-110 0 -200 2 -200 4 0 3 16 32 36 65 l36 61 297 0 297 0 19 38 c11 20 21 41 24 46 2 5 -18 7 -48 3 -50 -6 -51 -6 -37 16 7 12 36 61 65 108 l51 87 -148 256 -147 256 -87 0 c-49 0 -88 -3 -88 -6 0 -4 9 -22 21 -40 18 -30 26 -34 64 -34 l43 0 88 -152 c48 -84 94 -163 102 -175 l14 -23 -79 0 -79 0 -61 108 c-34 59 -97 170 -142 247 -44 76 -82 142 -83 146 -4 7 -98 19 -98 11z m-395 -504 c-37 -69 -42 -96 -24 -130 6 -11 9 -22 6 -24 -2 -2 -12 12 -23 31 -18 34 -18 36 1 72 48 90 68 124 71 120 3 -2 -11 -34 -31 -69z m353 -21 c18 -34 32 -65 32 -69 0 -4 -37 -71 -82 -150 -46 -79 -89 -156 -97 -171 l-15 -27 -38 66 c-21 37 -37 70 -36 74 9 23 194 339 198 340 3 0 20 -28 38 -63z m645 -127 c-3 -10 -14 -27 -26 -37 -11 -10 -17 -13 -14 -7 4 7 -4 23 -18 35 -32 31 -31 37 8 41 39 4 57 -7 50 -32z m-852 -26 c-17 -27 -31 -46 -31 -43 0 12 52 100 57 96 2 -3 -9 -27 -26 -53z m764 -36 c-14 -24 -31 -53 -37 -65 -11 -22 -16 -22 -212 -25 -111 -2 -202 -3 -204 -2 -1 1 13 27 33 59 19 33 35 62 35 67 0 4 93 8 206 8 l205 0 -26 -42z m-816 -66 c-9 -25 -8 -38 5 -63 21 -42 20 -52 -4 -37 -15 10 -27 10 -50 1 -16 -6 -30 -9 -30 -6 0 14 52 93 60 93 6 0 9 3 8 8 -2 10 14 44 18 39 2 -2 -1 -18 -7 -35z m850 -47 c24 -14 9 -25 -34 -25 -25 0 -45 3 -45 7 0 4 12 20 27 35 26 27 28 27 34 9 4 -10 12 -22 18 -26z"/> <path d="M730 1105 c0 -8 -5 -15 -11 -15 -6 0 -9 -9 -6 -20 10 -40 180 -321 205 -341 22 -17 37 -20 88 -17 42 3 67 9 80 22 17 18 17 20 -11 75 -16 31 -46 85 -67 120 -21 34 -38 67 -38 72 0 5 -3 9 -8 9 -4 0 -13 13 -20 29 -7 16 -25 41 -39 55 -23 23 -33 26 -99 26 -59 0 -74 -3 -74 -15z m206 -112 c31 -54 76 -131 100 -172 24 -40 44 -75 44 -77 0 -2 -36 -4 -80 -4 -44 0 -80 4 -80 8 0 4 -43 82 -95 171 -52 90 -95 166 -95 168 0 1 33 3 74 3 l75 0 57 -97z"/> </g> </svg>